<?xml version="1.0" encoding="UTF-8"?><svg id="Layer_1" xmlns="http://www.w3.org/2000/svg" viewBox="0 0 580.14 212.34"><path d="M574.43,187.14h-1.5v-2.01h1.5c.79,0,1.22.36,1.22,1.02,0,.59-.44.99-1.22.99M576.87,186.03c0-1.3-.99-1.93-2.36-1.93h-2.76v6.15h1.18v-2.13h1.26l1.46,2.13h1.42l-1.62-2.32c.83-.24,1.42-.87,1.42-1.89"/><path d="M579.43,187.29c0,2.96-2.32,5.4-5.32,5.4s-5.36-2.4-5.36-5.36v-.04c0-2.96,2.32-5.44,5.36-5.44s5.32,2.44,5.32,5.4v.04ZM574.12,181.22c-3.39,0-6.07,2.76-6.07,6.07v.04c0,3.31,2.64,6.03,6.07,6.03s6.03-2.76,6.03-6.07v-.04c0-3.31-2.64-6.03-6.03-6.03"/><path d="M537.82,181.18h3.24l19.3,24.55v-24.55h3.37v30.63h-2.76l-19.78-25.11v25.11h-3.37v-30.63Z"/><path d="M495.84,196.59v-.09c0-8.4,6.17-15.84,15.36-15.84,5.16,0,8.36,1.49,11.42,4.07l-2.23,2.63c-2.36-2.06-4.99-3.5-9.32-3.5-6.78,0-11.64,5.73-11.64,12.56v.09c0,7.31,4.68,12.73,12.12,12.73,3.5,0,6.74-1.36,8.84-3.06v-7.61h-9.32v-3.11h12.64v12.21c-2.84,2.54-7.13,4.68-12.29,4.68-9.63,0-15.58-7-15.58-15.75Z"/><path d="M478.43,181.18h3.46v30.63h-3.46v-30.63Z"/><path d="M442.22,207.35l2.14-2.54c3.19,2.89,6.26,4.33,10.5,4.33s6.82-2.19,6.82-5.21v-.09c0-2.84-1.53-4.46-7.96-5.82-7.05-1.53-10.28-3.81-10.28-8.84v-.09c0-4.81,4.24-8.36,10.06-8.36,4.46,0,7.66,1.27,10.76,3.76l-2.01,2.67c-2.85-2.32-5.69-3.32-8.84-3.32-3.98,0-6.52,2.19-6.52,4.94v.09c0,2.89,1.57,4.51,8.31,5.95,6.83,1.49,9.98,3.98,9.98,8.66v.09c0,5.25-4.38,8.66-10.46,8.66-4.86,0-8.84-1.62-12.52-4.9Z"/><path d="M408.6,181.18h22.14v3.15h-18.68v10.46h16.71v3.15h-16.71v10.72h18.9v3.15h-22.36v-30.63Z"/><path d="M368.5,181.18h10.63c9.62,0,16.27,6.61,16.27,15.23v.09c0,8.62-6.65,15.31-16.27,15.31h-10.63v-30.63ZM379.13,208.62c7.74,0,12.69-5.25,12.69-12.03v-.09c0-6.78-4.94-12.12-12.69-12.12h-7.18v24.24h7.18Z"/><path d="M328.75,197.99h-9.06v-3.15h9.06v-9.01h3.28v9.01h9.06v3.15h-9.06v9.01h-3.28v-9.01Z"/><path d="M272.25,207.35l2.14-2.54c3.19,2.89,6.26,4.33,10.5,4.33s6.83-2.19,6.83-5.21v-.09c0-2.84-1.53-4.46-7.96-5.82-7.04-1.53-10.28-3.81-10.28-8.84v-.09c0-4.81,4.24-8.36,10.06-8.36,4.46,0,7.66,1.27,10.76,3.76l-2.01,2.67c-2.84-2.32-5.69-3.32-8.84-3.32-3.98,0-6.52,2.19-6.52,4.94v.09c0,2.89,1.58,4.51,8.31,5.95,6.83,1.49,9.98,3.98,9.98,8.66v.09c0,5.25-4.38,8.66-10.46,8.66-4.86,0-8.84-1.62-12.51-4.9Z"/><path d="M236.3,181.18h13.17c3.76,0,6.78,1.14,8.71,3.06,1.49,1.49,2.36,3.63,2.36,6.04v.09c0,5.07-3.5,8.05-8.31,8.93l9.41,12.51h-4.24l-8.88-11.9h-8.75v11.9h-3.46v-30.63ZM249.16,196.81c4.59,0,7.88-2.36,7.88-6.3v-.09c0-3.76-2.89-6.04-7.83-6.04h-9.45v12.43h9.41Z"/><path d="M191.87,196.59v-.09c0-8.45,6.34-15.84,15.66-15.84s15.58,7.31,15.58,15.75v.09c0,8.44-6.34,15.84-15.67,15.84s-15.58-7.31-15.58-15.75ZM219.52,196.59v-.09c0-6.96-5.08-12.65-12.08-12.65s-11.99,5.6-11.99,12.56v.09c0,6.95,5.08,12.64,12.08,12.64s11.99-5.6,11.99-12.56Z"/><path d="M174.91,181.18h3.46v30.63h-3.46v-30.63Z"/><path d="M136.64,181.18h13.17c3.76,0,6.78,1.14,8.71,3.06,1.49,1.49,2.36,3.63,2.36,6.04v.09c0,5.07-3.5,8.05-8.31,8.93l9.41,12.51h-4.24l-8.88-11.9h-8.75v11.9h-3.46v-30.63ZM149.5,196.81c4.59,0,7.88-2.36,7.88-6.3v-.09c0-3.76-2.89-6.04-7.83-6.04h-9.45v12.43h9.41Z"/><path d="M101,181.18h22.14v3.15h-18.68v10.46h16.71v3.15h-16.71v10.72h18.9v3.15h-22.36v-30.63Z"/><path d="M76.17,184.38h-10.28v-3.19h24.06v3.19h-10.28v27.43h-3.5v-27.43Z"/><path d="M28.94,181.18h3.24l19.29,24.55v-24.55h3.37v30.63h-2.76l-19.78-25.11v25.11h-3.37v-30.63Z"/><path d="M9.3,181.18h3.46v30.63h-3.46v-30.63Z"/><path d="M567.18,118.08l-2.19,34.99h-108.02v-1.75l11.81-5.25-.22-139.07-11.81-5.25V0h100.15l3.28,33.02h-1.75l-18.81-28.65h-52.48v66.69l50.73-1.53v7l-50.73-1.75v73.91h60.57l17.71-30.61h1.75Z"/><path d="M422.87,151.32v1.75h-42.64v-1.75l12.9-5.25-40.24-66.04-42.64,66.04,17.27,5.25v1.75h-33.02v-1.75l10.28-5.25,45.92-69.76L307.2,7l-9.4-5.25V0h42.64v1.75l-12.9,5.25,35.21,56.64,36.08-56.64-16.4-5.25V0h33.02v1.75l-11.59,5.25-38.7,60.35,49.2,78.72,8.53,5.25Z"/><path d="M260.64,0v1.75l-11.37,5.25v98.18c0,32.15-18.15,51.83-50.29,51.83-34.55,0-57.73-17.71-57.73-52.48V7l-11.81-5.25V0h43.74v1.75l-13.56,5.25v99.06c0,25.59,14,45.7,39.36,45.7,29.96,0,45.48-18.37,45.48-46.58V7l-15.53-5.25V0h31.71Z"/><path d="M103.21,115.9l-2.19,37.17H0v-1.75l11.81-5.25V7L0,1.75V0h41.55v1.31l-11.37,5.69v141.26h54.67l16.62-32.36h1.75Z"/></svg>